<!DOCTYPE svg PUBLIC "-//W3C//DTD SVG 1.1//EN" "http://www.w3.org/Graphics/SVG/1.1/DTD/svg11.dtd">
<!-- Uploaded to: SVG Repo, www.svgrepo.com, Transformed by: SVG Repo Mixer Tools -->
<svg height="800px" width="800px" version="1.1" id="Layer_1" xmlns="http://www.w3.org/2000/svg" xmlns:xlink="http://www.w3.org/1999/xlink" viewBox="0 0 511.999 511.999" xml:space="preserve" fill="#000000">
<g id="SVGRepo_bgCarrier" stroke-width="0"/>
<g id="SVGRepo_tracerCarrier" stroke-linecap="round" stroke-linejoin="round"/>
<g id="SVGRepo_iconCarrier"> <ellipse style="fill:#464655;" cx="255.997" cy="64" rx="48" ry="32"/> <ellipse style="fill:#f00000;" cx="255.997" cy="287.999" rx="151.999" ry="191.999"/> <g> <circle style="fill:#F0EBE1;" cx="223.998" cy="152" r="16"/> <circle style="fill:#F0EBE1;" cx="287.997" cy="152" r="16"/> </g> <g> <circle style="fill:#464655;" cx="191.998" cy="295.999" r="24"/> <path style="fill:#464655;" d="M151.999,384.001c-9.229,0-17.147,5.269-21.163,12.908c6.996,12.805,15.191,24.474,24.382,34.768 c11.717-1.587,20.781-11.523,20.781-23.676C175.999,394.746,165.254,384.001,151.999,384.001z"/> <path style="fill:#464655;" d="M119.999,264.002c8.837,0,16-7.164,16-16c0-8.837-7.163-16-16-16c-3.933,0-7.487,1.474-10.272,3.828 c-1.463,6.553-2.661,13.242-3.569,20.059C108.914,260.713,114.046,264.002,119.999,264.002z"/> <circle style="fill:#464655;" cx="255.997" cy="168" r="24"/> <circle style="fill:#464655;" cx="319.997" cy="295.999" r="24"/> <path style="fill:#464655;" d="M359.998,384.001c9.229,0,17.148,5.269,21.164,12.908c-6.996,12.805-15.191,24.474-24.382,34.768 c-11.717-1.587-20.782-11.523-20.782-23.676C335.998,394.746,346.744,384.001,359.998,384.001z"/> <path style="fill:#464655;" d="M391.998,264.002c-8.836,0-16-7.164-16-16c0-8.837,7.164-16,16-16c3.933,0,7.487,1.474,10.273,3.828 c1.462,6.553,2.66,13.242,3.569,20.059C403.085,260.713,397.952,264.002,391.998,264.002z"/> </g> <path style="fill:#6B676E;" d="M351.998,120.003c-21.333-44-26.667-56-95.999-56s-74.667,12-95.999,56 c-3.598,7.42,7.333,13.333,17.566,20.641c52.713,13.342,105.031,14.283,156.866,0C344.665,133.336,355.596,127.423,351.998,120.003z "/> <g> <path style="fill:#F0EBE1;" d="M177.455,87.958c3.293,9.324,12.093,16.045,22.544,16.045c13.255,0,24-10.745,24-24 c0-5.275-1.753-10.111-4.638-14.072C197.704,68.848,186.54,75.452,177.455,87.958z"/> <path style="fill:#F0EBE1;" d="M292.636,65.931c-2.885,3.961-4.638,8.797-4.638,14.072c0,13.255,10.745,24,24,24 c10.451,0,19.251-6.721,22.544-16.045C325.458,75.452,314.294,68.848,292.636,65.931z"/> </g> <path d="M487.997,240.002c-20.894,0-35.969,9.317-44.916,17.101c-3.79-10.61-9.002-25.757-11.323-35.041 c-4.816-19.263-21.519-23.732-31.966-22.147c-8.326-21.192-19.738-40.587-33.964-57.372c-2.893-3.413-6.463-6.11-10.442-7.986 c4.636-4.957,7.282-10.882,3.81-18.044l-0.442-0.91c-1.302-2.685-2.548-5.254-3.763-7.726c10.893-4.682,29.006-13.975,29.006-35.874 V19.698c13.974,4.259,38.924,8.164,67.241-4.38c4.04-1.79,5.863-6.516,4.074-10.555c-1.79-4.04-6.515-5.865-10.555-4.074 c-35.203,15.596-63.795,0.89-64.966,0.271c-2.479-1.336-5.477-1.267-7.896,0.176c-2.417,1.444-3.897,4.053-3.897,6.868v64 c0,11.622-9.485,16.979-20.397,21.628c-6.092-10.814-12.33-18.948-21.457-24.979c-4.23-2.795-8.93-5.054-14.454-6.851 c-1.974-8.358-6.014-15.599-11.912-21.463c9.043-8.876,17.119-20.825,19.882-30.037c1.27-4.232-1.132-8.691-5.364-9.962 c-4.232-1.265-8.692,1.133-9.961,5.364c-2.182,7.273-10.07,18.215-17.904,25.229c-0.034-0.017-0.065-0.035-0.1-0.052 c-12.666-6.209-25.433-6.879-30.334-6.879c-4.901,0-17.668,0.67-30.334,6.879c-0.034,0.017-0.065,0.035-0.1,0.052 c-7.834-7.015-15.722-17.956-17.904-25.229c-1.27-4.232-5.726-6.634-9.961-5.364c-4.232,1.271-6.633,5.729-5.364,9.962 c2.763,9.212,10.839,21.161,19.882,30.037c-5.898,5.864-9.938,13.104-11.912,21.463c-5.524,1.797-10.224,4.056-14.454,6.851 c-9.127,6.03-15.365,14.164-21.457,24.979c-10.913-4.648-20.397-10.006-20.397-21.628v-64c0-2.815-1.48-5.424-3.897-6.868 c-2.418-1.445-5.417-1.51-7.896-0.176c-0.291,0.156-29.461,15.461-64.966-0.271c-4.04-1.788-8.765,0.035-10.555,4.074 s0.034,8.765,4.074,10.555c28.319,12.546,53.266,8.641,67.241,4.379v52.307c0,21.899,18.113,31.192,29.006,35.874 c-1.215,2.472-2.461,5.041-3.763,7.726l-0.441,0.91c-3.473,7.162-0.827,13.086,3.81,18.044c-3.979,1.875-7.549,4.573-10.442,7.986 c-14.226,16.785-25.639,36.181-33.965,57.372c-10.45-1.581-27.15,2.885-31.966,22.147c-2.321,9.284-7.533,24.431-11.323,35.041 c-8.947-7.783-24.022-17.101-44.916-17.101c-4.418,0-8,3.582-8,8s3.582,8,8,8c26.556,0,40.854,19.753,41.429,20.563 c1.506,2.169,3.97,3.437,6.569,3.437c0.329,0,0.66-0.021,0.992-0.062c2.952-0.368,5.456-2.344,6.5-5.13 c0.497-1.323,12.207-32.613,16.271-48.868c1.999-7.994,7.319-9.915,10.93-10.257C99.672,238.385,95.999,262.782,95.999,288 c0,22.92,3.069,45.26,8.95,66.282c-5.938,2.46-14.071,6.237-17.426,14.545c-2.204,5.457-1.816,11.646,1.154,18.395 c5.538,12.586,21.122,47.586,28.306,63.711C99.648,456.795,64,472.664,64,503.999c0,4.418,3.582,8,8,8c4.418,0,8-3.582,8-8 c0-27.473,49.362-40.1,49.853-40.218c2.316-0.551,4.266-2.104,5.32-4.239c1.054-2.134,1.104-4.626,0.134-6.8 c-0.247-0.554-24.742-55.506-31.984-71.965c-0.801-1.822-1.619-4.334-0.962-5.96c0.836-2.071,4.31-3.855,7.458-5.221 c7.759,21.728,18.663,41.744,32.429,59.133c30.258,38.221,70.656,59.27,113.751,59.27s83.495-21.049,113.751-59.27 c13.766-17.389,24.67-37.404,32.429-59.133c3.148,1.365,6.622,3.149,7.458,5.221c0.656,1.626-0.161,4.138-0.962,5.96 c-7.242,16.459-31.738,71.411-31.984,71.965c-0.968,2.171-0.917,4.661,0.135,6.794c1.051,2.133,3,3.688,5.311,4.243 c0.499,0.12,49.861,12.747,49.861,40.22c0,4.418,3.582,8,8,8c4.418,0,8-3.582,8-8c0-31.335-35.648-47.204-52.983-53.067 c7.184-16.125,22.768-51.125,28.306-63.711c2.97-6.748,3.358-12.938,1.154-18.395c-3.355-8.308-11.489-12.085-17.426-14.545 c5.881-21.022,8.95-43.362,8.95-66.282c0-25.219-3.674-49.615-10.691-72.316c3.611,0.342,8.932,2.263,10.93,10.257 c4.064,16.255,15.774,47.545,16.271,48.868c1.044,2.786,3.548,4.762,6.5,5.13c0.332,0.041,0.663,0.062,0.992,0.062 c2.599,0,5.063-1.268,6.569-3.437c0.143-0.206,14.59-20.563,41.429-20.563c4.418,0,8-3.582,8-8S492.416,240.002,487.997,240.002z M395.089,240.619c0.917,4.359,1.704,8.768,2.368,13.212c-1.465,1.366-3.408,2.171-5.458,2.171c-4.411,0-8-3.589-8-8s3.589-8,8-8 C393.083,240.002,394.118,240.209,395.089,240.619z M317.324,82.002c3.717,2.456,6.872,5.569,9.827,9.417 c-6.761,2.461-15.635,2.836-22.114-0.755c-5.432-3.011-8.43-8.452-8.949-16.18C305.355,76.089,312.076,78.534,317.324,82.002z M255.998,40.003c3.1,0,27.551,0.572,37.19,17.855c-9.985-1.29-22.089-1.855-37.19-1.855c-15.101,0-27.205,0.565-37.19,1.855 C228.447,40.575,252.898,40.003,255.998,40.003z M194.674,82.002c5.249-3.468,11.969-5.913,21.236-7.518 c-0.519,7.728-3.517,13.169-8.949,16.18c-6.479,3.589-15.353,3.214-22.114,0.755C187.803,87.57,190.957,84.458,194.674,82.002z M167.64,122.582c2.501-5.159,4.755-9.808,6.898-13.997c0.14-0.201,0.284-0.396,0.408-0.613c0.246-0.43,0.441-0.875,0.6-1.326 c0.251-0.482,0.505-0.975,0.754-1.443c5.56,2.523,12.345,4.175,19.364,4.175c6.417,0,13.024-1.377,19.054-4.719 c10.974-6.082,17.08-17.429,17.265-31.982c6.926-0.458,14.859-0.673,24.018-0.673c9.159,0,17.092,0.215,24.018,0.673 c0.185,14.554,6.291,25.9,17.265,31.982c6.03,3.342,12.636,4.719,19.054,4.719c7.019,0,13.805-1.651,19.364-4.175 c0.249,0.469,0.503,0.961,0.754,1.443c0.159,0.451,0.354,0.896,0.6,1.326c0.124,0.217,0.268,0.413,0.408,0.613 c2.143,4.189,4.397,8.839,6.898,13.997l0.141,0.292c-1.416,2.063-6.708,5.707-10.304,8.183c-1.085,0.747-2.188,1.519-3.287,2.292 c-22.846,6.968-48.713,10.654-74.91,10.654s-52.065-3.687-74.91-10.655c-1.099-0.772-2.202-1.544-3.287-2.291 c-3.597-2.476-8.888-6.119-10.304-8.183L167.64,122.582z M116.909,240.619c0.971-0.41,2.006-0.617,3.09-0.617c4.411,0,8,3.589,8,8 s-3.589,8-8,8c-2.05,0-3.993-0.805-5.458-2.171C115.206,249.387,115.993,244.978,116.909,240.619z M158.09,422.791 c-6.565-7.792-12.563-16.351-17.903-25.57c3.029-3.315,7.321-5.22,11.813-5.22c8.822,0,16,7.178,16,16 C167.999,414.499,164.046,420.337,158.09,422.791z M353.908,422.791c-5.957-2.454-9.91-8.292-9.91-14.79c0-8.822,7.178-16,16-16 c4.491,0,8.783,1.904,11.813,5.22C366.471,406.44,360.473,414.999,353.908,422.791z M379.457,382.614 c-5.545-4.246-12.378-6.613-19.459-6.613c-17.645,0-32,14.355-32,32c0,11.003,5.662,21.072,14.631,26.881 c-22.13,21.363-49.217,34.762-78.631,36.83V184.003c0-4.418-3.582-8-8-8c-4.418,0-8,3.582-8,8v287.709 c-29.414-2.068-56.5-15.467-78.631-36.83c8.969-5.809,14.631-15.878,14.631-26.881c0-17.645-14.355-32-32-32 c-7.081,0-13.914,2.367-19.459,6.613c-13.034-27.664-20.541-60.038-20.541-94.612c0-5.754,0.226-11.482,0.648-17.172 c2.348,0.76,4.822,1.172,7.352,1.172c13.234,0,24-10.767,24-24c0-12.876-10.193-23.412-22.934-23.973 c7.832-26.852,20.529-51.344,37.309-71.143c2.889-3.409,7.208-5.364,11.848-5.364c1.678,0,3.349,0.255,4.966,0.759 c24.642,7.668,52.586,11.721,80.81,11.721c28.223,0,56.166-4.053,80.809-11.72c0.012-0.004,0.024-0.007,0.036-0.01 c1.606-0.497,3.265-0.75,4.932-0.75c4.64,0,8.959,1.955,11.848,5.365c16.78,19.798,29.478,44.291,37.309,71.142 c-12.741,0.561-22.934,11.097-22.934,23.973c0,13.233,10.766,24,24,24c2.529,0,5.004-0.412,7.352-1.172 c0.423,5.689,0.648,11.418,0.648,17.172C399.997,322.577,392.491,354.951,379.457,382.614z"/> <path d="M191.999,264.002c-17.645,0-32,14.355-32,32c0,17.645,14.355,32,32,32s32-14.355,32-32 C223.999,278.357,209.644,264.002,191.999,264.002z M191.999,312.002c-8.822,0-16-7.178-16-16c0-8.822,7.178-16,16-16 s16,7.178,16,16C207.999,304.824,200.822,312.002,191.999,312.002z"/> <path d="M319.998,264.002c-17.645,0-32,14.355-32,32c0,17.645,14.355,32,32,32c17.645,0,32-14.355,32-32 C351.998,278.357,337.643,264.002,319.998,264.002z M319.998,312.002c-8.822,0-16-7.178-16-16c0-8.822,7.178-16,16-16 c8.822,0,16,7.178,16,16C335.998,304.824,328.821,312.002,319.998,312.002z"/> </g>
</svg>