<!DOCTYPE svg PUBLIC "-//W3C//DTD SVG 1.1//EN" "http://www.w3.org/Graphics/SVG/1.1/DTD/svg11.dtd">
<!-- Uploaded to: SVG Repo, www.svgrepo.com, Transformed by: SVG Repo Mixer Tools -->
<svg height="800px" width="800px" version="1.1" id="Layer_1" xmlns="http://www.w3.org/2000/svg" xmlns:xlink="http://www.w3.org/1999/xlink" viewBox="0 0 511.999 511.999" xml:space="preserve" fill="#000000" transform="rotate(45)" stroke="#000000">
<g id="SVGRepo_bgCarrier" stroke-width="0"/>
<g id="SVGRepo_tracerCarrier" stroke-linecap="round" stroke-linejoin="round"/>
<g id="SVGRepo_iconCarrier"> <path style="fill:#000000;" d="M207.797,120.027l0.022,1.433c-20.179,6.134-38.646,16.801-53.969,32.124s-25.99,33.79-32.124,53.969 l-1.445-0.022c-4.534-2.678-8.823-5.978-12.723-9.878c-9.312-9.312-15.145-20.768-17.501-32.779 c-3.978-20.19,1.856-41.935,17.501-57.58s37.39-21.479,57.58-17.501c12.012,2.356,23.468,8.189,32.779,17.501 C201.83,111.193,205.12,115.482,207.797,120.027z"/> <path style="fill:#f00000;" d="M408.428,408.161c-58.58,58.58-163.063,49.08-233.355-21.212 c-51.913-51.913-70.67-122.461-53.347-179.397c6.134-20.179,16.801-38.646,32.124-53.969s33.79-25.99,53.969-32.124 c56.947-17.323,127.483,1.433,179.397,53.336C457.508,245.099,467.009,349.581,408.428,408.161z M400.306,319.458 c7.634-7.634,7.634-20.001,0-27.635c-7.623-7.634-20.001-7.634-27.623,0c-7.634,7.634-7.634,20.001,0,27.635 C380.305,327.08,392.683,327.08,400.306,319.458z M358.826,230.832c7.634-7.634,7.634-20.001,0-27.635 c-7.634-7.634-20.001-7.634-27.635,0c-7.623,7.634-7.623,20.001,0,27.635C338.825,238.454,351.193,238.454,358.826,230.832z M317.913,401.85c7.634-7.634,7.634-20.001,0-27.635c-7.623-7.634-20.001-7.634-27.623,0c-7.634,7.634-7.634,20.001,0,27.635 C297.912,409.473,310.291,409.473,317.913,401.85z M270.2,189.341c7.634-7.634,7.634-20.001,0-27.623 c-7.634-7.634-20.001-7.634-27.635,0c-7.623,7.623-7.623,19.99,0,27.623C250.199,196.975,262.566,196.975,270.2,189.341z M229.287,360.359c7.634-7.623,7.634-20.001,0-27.623c-7.623-7.634-20.001-7.634-27.623,0c-7.634,7.623-7.634,20.001,0,27.623 C209.286,367.993,221.665,367.993,229.287,360.359z M187.808,271.733c7.634-7.623,7.634-20.001,0-27.623 c-7.634-7.634-20.001-7.634-27.635,0c-7.623,7.623-7.623,20.001,0,27.623C167.807,279.367,180.174,279.367,187.808,271.733z"/> <g> <path style="fill:#000000;" d="M400.306,291.823c7.634,7.634,7.634,20.001,0,27.635c-7.623,7.623-20.001,7.623-27.623,0 c-7.634-7.634-7.634-20.001,0-27.635C380.305,284.189,392.683,284.189,400.306,291.823z"/> <path style="fill:#000000;" d="M358.826,203.197c7.634,7.634,7.634,20.001,0,27.635c-7.634,7.623-20.001,7.623-27.635,0 c-7.623-7.634-7.623-20.001,0-27.635C338.825,195.563,351.193,195.563,358.826,203.197z"/> <path style="fill:#000000;" d="M317.913,374.216c7.634,7.634,7.634,20.001,0,27.635c-7.623,7.623-20.001,7.623-27.623,0 c-7.634-7.634-7.634-20.001,0-27.635C297.912,366.582,310.291,366.582,317.913,374.216z"/> <path style="fill:#000000;" d="M270.2,161.717c7.634,7.623,7.634,19.99,0,27.623c-7.634,7.634-20.001,7.634-27.635,0 c-7.623-7.634-7.623-20.001,0-27.623C250.199,154.084,262.566,154.084,270.2,161.717z"/> <path style="fill:#000000;" d="M229.287,332.736c7.634,7.623,7.634,20.001,0,27.623c-7.623,7.634-20.001,7.634-27.623,0 c-7.634-7.623-7.634-20.001,0-27.623C209.286,325.102,221.665,325.102,229.287,332.736z"/> <path style="fill:#000000;" d="M187.808,244.11c7.634,7.623,7.634,20.001,0,27.623c-7.634,7.634-20.001,7.634-27.635,0 c-7.623-7.623-7.623-20.001,0-27.623C167.807,236.476,180.174,236.476,187.808,244.11z"/> </g> <path d="M75.686,177.135c-26.826,0-52.95-10.612-72.166-29.828c-4.339-4.339-4.339-11.375,0-15.714 c4.339-4.338,11.375-4.339,15.714,0c18.032,18.032,43.847,26.374,69.056,22.311c6.058-0.976,11.762,3.145,12.737,9.203 c0.976,6.059-3.143,11.762-9.203,12.737C86.452,176.709,81.054,177.135,75.686,177.135z"/> <path d="M165.153,100.905c-0.588,0-1.182-0.047-1.781-0.143c-6.059-0.976-10.179-6.679-9.203-12.737 c4.061-25.209-4.279-51.024-22.311-69.056c-4.339-4.339-4.339-11.375,0-15.714c4.339-4.338,11.375-4.339,15.714,0 c23.062,23.062,33.729,56.074,28.536,88.306C175.23,97.019,170.511,100.905,165.153,100.905z"/> <path d="M120.271,218.643c-1.921,0-3.866-0.498-5.64-1.546c-5.415-3.198-10.437-7.097-14.93-11.588 c-10.578-10.578-17.683-23.89-20.548-38.498c-4.847-24.597,2.835-49.863,20.548-67.576s42.979-25.393,67.585-20.545 c14.598,2.863,27.911,9.968,38.488,20.545c4.477,4.466,8.381,9.498,11.594,14.95c3.116,5.287,1.356,12.099-3.931,15.214 c-5.288,3.116-12.099,1.356-15.214-3.931c-2.256-3.828-4.998-7.363-8.151-10.507c-7.455-7.455-16.812-12.453-27.072-14.465 c-17.336-3.416-35.119,1.989-47.584,14.454s-17.87,30.25-14.456,47.575c2.013,10.268,7.011,19.626,14.456,27.07 c3.171,3.171,6.709,5.919,10.516,8.168c5.284,3.121,7.037,9.934,3.917,15.218C127.776,216.691,124.073,218.643,120.271,218.643z"/> <path d="M311.353,457.693c-5.341,0-10.747-0.247-16.217-0.743c-46.659-4.242-92.088-26.311-127.92-62.142 c-53.133-53.133-75.162-127.904-56.12-190.488c6.866-22.589,18.607-42.303,34.896-58.591c16.29-16.288,36.004-28.03,58.593-34.897 l0,0c62.584-19.035,137.354,2.986,190.486,56.108c35.833,35.838,57.9,81.271,62.143,127.931c4.311,47.42-10.225,90.445-40.93,121.15 C389.122,443.181,352.313,457.69,311.353,457.693z M251.207,126.266c-13.749,0-27.258,1.901-40.154,5.825c0,0-0.001,0-0.002,0.001 c-19.061,5.794-35.663,15.668-49.343,29.349s-23.555,30.282-29.349,49.343c-16.685,54.838,3.166,120.902,50.572,168.308 c32.163,32.163,72.725,51.952,114.218,55.725c40.737,3.704,77.462-8.554,103.421-34.513 c54.153-54.153,44.639-151.791-21.212-217.653C343.101,146.403,295.922,126.266,251.207,126.266z"/> <path d="M200.022,210.866c-2.843,0-5.688-1.084-7.857-3.255l-1.691-1.691c-4.339-4.339-4.339-11.375,0-15.715s11.375-4.339,15.715,0 l1.691,1.691c4.339,4.339,4.339,11.375,0,15.715C205.71,209.782,202.865,210.866,200.022,210.866z"/> <path d="M408.427,419.273c-2.845,0-5.687-1.085-7.857-3.255L214.802,230.249c-4.339-4.339-4.339-11.375,0-15.715 c4.339-4.338,11.374-4.339,15.714,0l185.769,185.769c4.339,4.339,4.339,11.375,0,15.715 C414.115,418.189,411.272,419.273,408.427,419.273z"/> <path d="M119.294,308.002H61.135c-6.137,0-11.112-4.975-11.112-11.112c0-6.137,4.975-11.112,11.112-11.112h58.158 c6.137,0,11.112,4.975,11.112,11.112C130.405,303.027,125.431,308.002,119.294,308.002z"/> <path d="M133.772,439.352c-2.845,0-5.687-1.085-7.857-3.255c-4.339-4.339-4.339-11.375,0-15.714l35.968-35.968 c4.339-4.338,11.375-4.339,15.714,0c4.339,4.339,4.339,11.375,0,15.714l-35.968,35.968 C139.459,438.266,136.615,439.352,133.772,439.352z"/> <path d="M265.122,511.999c-6.136,0-11.112-4.975-11.112-11.112v-58.169c0-6.137,4.976-11.112,11.112-11.112 s11.112,4.975,11.112,11.112v58.169C276.234,507.025,271.258,511.999,265.122,511.999z"/> <path d="M500.621,276.5h-58.169c-6.136,0-11.112-4.975-11.112-11.112c0-6.137,4.976-11.112,11.112-11.112h58.17 c6.136,0,11.112,4.975,11.112,11.112C511.734,271.526,506.758,276.5,500.621,276.5z"/> <path d="M392.017,181.118c-2.845,0-5.687-1.084-7.857-3.255c-4.339-4.339-4.339-11.375,0-15.714l35.968-35.968 c4.341-4.338,11.375-4.339,15.715,0c4.34,4.339,4.339,11.375,0,15.714l-35.968,35.968 C397.703,180.033,394.86,181.118,392.017,181.118z"/> <path d="M296.635,130.672c-6.136,0-11.112-4.975-11.112-11.112V61.402c0-6.137,4.976-11.112,11.112-11.112 s11.112,4.975,11.112,11.112v58.158C307.746,125.697,302.772,130.672,296.635,130.672z"/> <path d="M173.993,288.554c-7.849,0-15.7-2.988-21.676-8.964c-11.947-11.948-11.947-31.39,0-43.337 c11.951-11.948,31.392-11.952,43.343-0.006l0,0c5.795,5.787,8.985,13.484,8.985,21.674c0,8.19-3.191,15.888-8.985,21.674 C189.687,285.568,181.84,288.554,173.993,288.554z M173.99,249.502c-2.159,0-4.317,0.821-5.96,2.465 c-3.283,3.283-3.283,8.626,0,11.909c3.287,3.287,8.635,3.286,11.921,0c1.596-1.593,2.47-3.706,2.47-5.955 c0-2.249-0.876-4.361-2.465-5.949c-0.002-0.001-0.003-0.003-0.006-0.006C178.307,250.324,176.148,249.502,173.99,249.502z"/> <path d="M215.476,377.196c-8.191,0-15.888-3.191-21.674-8.985c-5.784-5.775-8.975-13.472-8.975-21.663 c0-8.191,3.191-15.888,8.986-21.674c5.775-5.784,13.472-8.975,21.663-8.975c8.188,0,15.883,3.19,21.669,8.98 c5.79,5.786,8.979,13.481,8.979,21.669c0,8.191-3.191,15.888-8.985,21.674C231.364,374.006,223.667,377.196,215.476,377.196z M215.476,338.122c-2.249,0-4.361,0.876-5.949,2.466c-1.601,1.599-2.477,3.711-2.477,5.96c0,2.248,0.876,4.361,2.466,5.949 c1.599,1.601,3.711,2.477,5.96,2.477c2.248,0,4.361-0.876,5.949-2.465c1.601-1.599,2.477-3.711,2.477-5.96 c0-2.249-0.876-4.361-2.465-5.949c-0.003-0.003-0.008-0.008-0.011-0.011C219.837,338.997,217.725,338.122,215.476,338.122z"/> <path d="M304.102,418.679c-8.188,0-15.884-3.186-21.669-8.971c-5.79-5.79-8.979-13.487-8.979-21.673 c0-8.187,3.189-15.884,8.979-21.674c5.779-5.788,13.477-8.98,21.669-8.98c8.191,0,15.89,3.191,21.674,8.986 c5.787,5.789,8.974,13.484,8.974,21.668c0,8.186-3.189,15.883-8.979,21.674C319.986,415.493,312.29,418.679,304.102,418.679z M304.102,379.601c-2.248,0-4.361,0.876-5.949,2.465c-1.599,1.599-2.477,3.716-2.477,5.967c0,2.25,0.877,4.367,2.471,5.959 c1.588,1.589,3.702,2.462,5.954,2.462s4.367-0.874,5.954-2.462c1.595-1.593,2.471-3.71,2.471-5.96c0-2.25-0.877-4.367-2.471-5.96 c-0.001-0.002-0.003-0.004-0.006-0.007C308.463,380.477,306.349,379.601,304.102,379.601z"/> <path d="M386.494,336.276c-7.848,0.001-15.695-2.987-21.67-8.96l0,0l0,0c-5.79-5.79-8.979-13.488-8.979-21.674 s3.189-15.883,8.979-21.674c5.78-5.788,13.478-8.979,21.67-8.979c8.19,0,15.888,3.191,21.674,8.985 c5.785,5.785,8.974,13.482,8.974,21.668c0,8.187-3.189,15.884-8.979,21.674C402.189,333.288,394.341,336.275,386.494,336.276z M386.494,297.21c-2.249,0-4.362,0.876-5.949,2.465c-1.599,1.599-2.477,3.716-2.477,5.966s0.877,4.367,2.471,5.96l0,0 c3.283,3.282,8.626,3.285,11.909,0c1.595-1.593,2.471-3.709,2.471-5.96c0-2.25-0.877-4.367-2.471-5.959 C390.855,298.084,388.743,297.21,386.494,297.21z"/> <path d="M345.007,247.641c-7.848,0-15.694-2.983-21.667-8.947c-0.004-0.003-0.008-0.008-0.012-0.011 c-11.931-11.948-11.931-31.389,0-43.337c11.959-11.958,31.405-11.955,43.355-0.006c11.952,11.952,11.952,31.398,0,43.35 C360.705,244.658,352.856,247.641,345.007,247.641z M339.049,222.975c3.29,3.28,8.638,3.278,11.926-0.006 c3.28-3.281,3.28-8.628-0.007-11.915c-3.285-3.287-8.634-3.287-11.921,0C335.772,214.336,335.77,219.684,339.049,222.975z"/> <path d="M256.383,206.177c-8.187,0-15.884-3.189-21.674-8.98c-0.001-0.001-0.003-0.003-0.004-0.004 c-11.938-11.954-11.935-31.392,0.006-43.333c5.79-5.79,13.487-8.98,21.674-8.98c8.187,0,15.883,3.189,21.674,8.98 c5.788,5.78,8.979,13.476,8.979,21.665c0,8.186-3.189,15.882-8.979,21.673C272.266,202.988,264.57,206.177,256.383,206.177z M250.426,181.487c1.593,1.591,3.708,2.467,5.957,2.467c2.25,0,4.367-0.878,5.96-2.471c1.595-1.593,2.471-3.709,2.471-5.958 c0-2.246-0.874-4.357-2.465-5.945c-1.599-1.599-3.717-2.477-5.967-2.477c-2.25,0-4.367,0.878-5.96,2.471 C247.142,172.855,247.144,178.198,250.426,181.487z"/> </g>
</svg>